<svg width="21" height="21" viewBox="0 0 21 21" xmlns="http://www.w3.org/2000/svg">
    <path d="M4 20.5C2.067 20.5 0.5 18.933 0.5 17C0.5 15.067 2.067 13.5 4 13.5C5.585 13.5 6.924 14.554 7.355 16H13V14H15V8.24198L12.757 5.99998H7V7.99998H1V1.99998H7V3.99998H12.757L16 0.755981L20.243 4.99998L17 8.24098V14H19V20H13V18H7.355C6.925 19.446 5.585 20.5 4 20.5ZM4 15.5C3.172 15.5 2.5 16.172 2.5 17C2.5 17.828 3.172 18.5 4 18.5C4.828 18.5 5.5 17.828 5.5 17C5.5 16.172 4.828 15.5 4 15.5ZM17 16H15V18H17V16ZM16 3.58598L14.586 4.99998L16 6.41398L17.414 4.99998L16 3.58598ZM5 3.99998H3V5.99998H5V3.99998Z" />
</svg>