<svg width="16" height="13" viewBox="0 0 16 13"   xmlns="http://www.w3.org/2000/svg">
    <path d="M8.57735 1.00005L14.928 12.0001C14.9865 12.1014 15.0173 12.2164 15.0173 12.3334C15.0173 12.4504 14.9865 12.5654 14.928 12.6667C14.8695 12.7681 14.7854 12.8522 14.684 12.9107C14.5827 12.9692 14.4677 13 14.3507 13.0001H1.64935C1.53232 13 1.41736 12.9692 1.31602 12.9107C1.21468 12.8522 1.13052 12.7681 1.07201 12.6667C1.0135 12.5654 0.982696 12.4504 0.982697 12.3334C0.982697 12.2164 1.0135 12.1014 1.07201 12.0001L7.42268 1.00005C7.48119 0.898714 7.56535 0.814563 7.66669 0.756056C7.76804 0.697549 7.88299 0.666748 8.00001 0.666748C8.11703 0.666748 8.23199 0.697549 8.33333 0.756056C8.43467 0.814563 8.51883 0.898714 8.57735 1.00005ZM2.80401 11.6667H13.196L8.00001 2.66672L2.80401 11.6667ZM7.33335 9.66672H8.66668V11.0001H7.33335V9.66672ZM7.33335 5.00005H8.66668V8.33339H7.33335V5.00005Z"  />
</svg>