<svg width="23" height="17" viewBox="0 0 23 17"   xmlns="http://www.w3.org/2000/svg">
    <path d="M8.49999 2C6.77608 2 5.12278 2.68482 3.90379 3.90381C2.68481 5.12279 1.99999 6.77609 1.99999 8.5C1.99999 10.2239 2.68481 11.8772 3.90379 13.0962C5.12278 14.3152 6.77608 15 8.49999 15H15.5C16.1312 14.9994 16.7552 14.866 17.3314 14.6085C17.9077 14.351 18.4234 13.9752 18.8449 13.5054C19.2664 13.0357 19.5845 12.4825 19.7783 11.8818C19.9721 11.2811 20.0373 10.6464 19.9699 10.0188C19.9024 9.39123 19.7036 8.78489 19.3865 8.23916C19.0694 7.69342 18.641 7.2205 18.1292 6.85111C17.6174 6.48173 17.0336 6.22414 16.4158 6.09508C15.7979 5.96602 15.1599 5.96838 14.543 6.102C14.0623 4.89174 13.2293 3.8537 12.1519 3.12233C11.0744 2.39096 9.80221 1.99997 8.49999 2ZM15.5 17H8.49999C7.02022 16.9996 5.56618 16.613 4.2817 15.8783C2.99721 15.1436 1.92679 14.0862 1.1763 12.8109C0.425815 11.5356 0.0212711 10.0864 0.00268483 8.60676C-0.0159015 7.12711 0.352114 5.66825 1.07033 4.37446C1.78854 3.08068 2.83207 1.99681 4.0977 1.23006C5.36332 0.463314 6.80719 0.040256 8.28648 0.00273365C9.76577 -0.0347887 11.2292 0.314525 12.5321 1.01612C13.835 1.71772 14.9321 2.74729 15.715 4.003C17.4227 4.05468 19.0414 4.77661 20.2208 6.01261C21.4003 7.24862 22.0458 8.8993 22.0175 10.6075C21.9892 12.3158 21.2896 13.9442 20.0698 15.1405C18.8501 16.3368 17.2085 17.0048 15.5 17Z"  />
</svg>