<svg width="16" height="13" viewBox="0 0 16 13"  xmlns="http://www.w3.org/2000/svg">
    <path d="M8.57707 1.0003L14.9277 12.0003C14.9862 12.1016 15.0171 12.2166 15.0171 12.3336C15.0171 12.4506 14.9863 12.5656 14.9277 12.667C14.8692 12.7683 14.7851 12.8525 14.6837 12.911C14.5824 12.9695 14.4674 13.0003 14.3504 13.0003H1.64907C1.53205 13.0003 1.41709 12.9695 1.31574 12.911C1.2144 12.8525 1.13024 12.7683 1.07173 12.667C1.01322 12.5656 0.982421 12.4506 0.982422 12.3336C0.982423 12.2166 1.01323 12.1016 1.07174 12.0003L7.4224 1.0003C7.48092 0.898958 7.56508 0.814807 7.66642 0.7563C7.76776 0.697793 7.88272 0.666992 7.99974 0.666992C8.11676 0.666992 8.23171 0.697793 8.33306 0.7563C8.4344 0.814807 8.51856 0.898958 8.57707 1.0003ZM2.80374 11.667H13.1957L7.99974 2.66696L2.80374 11.667ZM7.33307 9.66696H8.6664V11.0003H7.33307V9.66696ZM7.33307 5.0003H8.6664V8.33363H7.33307V5.0003Z" />
</svg>