<svg width="24" height="28" viewBox="0 0 24 28" fill="none" xmlns="http://www.w3.org/2000/svg">
    <path d="M24 8.75V26.074C24.0012 26.2491 23.968 26.4227 23.9021 26.585C23.8362 26.7472 23.739 26.8949 23.6161 27.0196C23.4931 27.1442 23.3468 27.2435 23.1855 27.3116C23.0242 27.3797 22.8511 27.4154 22.676 27.4167H1.324C0.973084 27.4167 0.636522 27.2774 0.388262 27.0293C0.140002 26.7813 0.00035339 26.4449 0 26.094V2.07267C0 1.35667 0.598667 0.75 1.336 0.75H15.996L24 8.75ZM21.3333 10.0833H14.6667V3.41667H2.66667V24.75H21.3333V10.0833Z" fill="black"/>
</svg>