<svg width="18" height="18" viewBox="0 0 18 18"   xmlns="http://www.w3.org/2000/svg">
    <path d="M14.657 11.828L13.243 10.414L14.657 9C15.0284 8.62856 15.3231 8.18759 15.5241 7.70228C15.7251 7.21696 15.8286 6.69681 15.8286 6.1715C15.8286 5.6462 15.7251 5.12605 15.5241 4.64073C15.3231 4.15542 15.0284 3.71445 14.657 3.343C14.2856 2.97156 13.8446 2.67691 13.3593 2.47589C12.874 2.27487 12.3538 2.1714 11.8285 2.1714C11.3032 2.1714 10.783 2.27487 10.2977 2.47589C9.81241 2.67691 9.37144 2.97156 9 3.343L7.586 4.757L6.172 3.343L7.586 1.929C8.71431 0.818923 10.2356 0.199659 11.8184 0.206104C13.4012 0.21255 14.9174 0.844181 16.0366 1.96341C17.1558 3.08265 17.7875 4.5988 17.7939 6.18162C17.8003 7.76444 17.1811 9.28569 16.071 10.414L14.657 11.828ZM11.828 14.657L10.414 16.071C9.85852 16.6356 9.19675 17.0846 8.46686 17.3922C7.73698 17.6998 6.95341 17.8598 6.16138 17.863C5.36934 17.8662 4.58451 17.7126 3.85214 17.411C3.11977 17.1094 2.45437 16.6658 1.89431 16.1057C1.33425 15.5456 0.890618 14.8802 0.589007 14.1479C0.287396 13.4155 0.133772 12.6307 0.136997 11.8386C0.140222 11.0466 0.300232 10.263 0.607798 9.53314C0.915363 8.80325 1.3644 8.14148 1.929 7.586L3.343 6.172L4.757 7.586L3.343 9C2.97155 9.37145 2.67691 9.81242 2.47589 10.2977C2.27486 10.783 2.1714 11.3032 2.1714 11.8285C2.1714 12.3538 2.27486 12.874 2.47589 13.3593C2.67691 13.8446 2.97155 14.2856 3.343 14.657C3.71444 15.0284 4.15541 15.3231 4.64072 15.5241C5.12604 15.7251 5.6462 15.8286 6.1715 15.8286C6.6968 15.8286 7.21696 15.7251 7.70227 15.5241C8.18759 15.3231 8.62855 15.0284 9 14.657L10.414 13.243L11.828 14.657ZM11.828 4.757L13.243 6.172L6.172 13.242L4.757 11.828L11.828 4.758V4.757Z"  />
</svg>