<svg width="24" height="28" viewBox="0 0 24 28" fill="none" xmlns="http://www.w3.org/2000/svg">
    <path d="M14.6667 9.99935V3.33268H2.66667V24.666H10.7413C11.1787 25.222 11.7067 25.7127 12.3147 26.1127L14.168 27.3327H1.324C0.973084 27.3327 0.636522 27.1934 0.388262 26.9454C0.140002 26.6974 0.000353389 26.3609 0 26.01V1.98868C0 1.27268 0.598667 0.666016 1.336 0.666016H15.996L24 8.66602V9.99935H14.6667ZM12 12.666H24V20.598C24 21.918 23.332 23.1527 22.2187 23.8847L18 26.6633L13.7813 23.8847C13.2355 23.5275 12.787 23.0403 12.476 22.4668C12.1651 21.8934 12.0015 21.2517 12 20.5993V12.666ZM14.6667 20.598C14.6667 21.0193 14.8827 21.4167 15.248 21.658L18 23.4713L20.752 21.658C20.9292 21.5434 21.0752 21.3865 21.1766 21.2015C21.2781 21.0164 21.332 20.8091 21.3333 20.598V15.3327H14.6667V20.598Z" fill="black"/>
</svg>