<svg width="20" height="18" viewBox="0 0 20 18"   xmlns="http://www.w3.org/2000/svg">
    <path d="M2 15V11.3C2 10.9022 1.84196 10.5206 1.56066 10.2393C1.27936 9.95804 0.897825 9.8 0.5 9.8H0V8.2H0.5C0.696983 8.2 0.892037 8.1612 1.07403 8.08582C1.25601 8.01044 1.42137 7.89995 1.56066 7.76066C1.69995 7.62137 1.81044 7.45601 1.88582 7.27402C1.9612 7.09204 2 6.89698 2 6.7V3C2 2.20435 2.31607 1.44129 2.87868 0.87868C3.44129 0.316071 4.20435 0 5 0H6V2H5C4.73478 2 4.48043 2.10536 4.29289 2.29289C4.10536 2.48043 4 2.73478 4 3V7.1C4.0001 7.52101 3.86735 7.93132 3.62064 8.27247C3.37393 8.61362 3.02586 8.86822 2.626 9C3.02586 9.13178 3.37393 9.38638 3.62064 9.72753C3.86735 10.0687 4.0001 10.479 4 10.9V15C4 15.2652 4.10536 15.5196 4.29289 15.7071C4.48043 15.8946 4.73478 16 5 16H6V18H5C4.20435 18 3.44129 17.6839 2.87868 17.1213C2.31607 16.5587 2 15.7956 2 15ZM18 11.3V15C18 15.7956 17.6839 16.5587 17.1213 17.1213C16.5587 17.6839 15.7956 18 15 18H14V16H15C15.2652 16 15.5196 15.8946 15.7071 15.7071C15.8946 15.5196 16 15.2652 16 15V10.9C15.9999 10.479 16.1327 10.0687 16.3794 9.72753C16.6261 9.38638 16.9741 9.13178 17.374 9C16.9741 8.86822 16.6261 8.61362 16.3794 8.27247C16.1327 7.93132 15.9999 7.52101 16 7.1V3C16 2.73478 15.8946 2.48043 15.7071 2.29289C15.5196 2.10536 15.2652 2 15 2H14V0H15C15.7956 0 16.5587 0.316071 17.1213 0.87868C17.6839 1.44129 18 2.20435 18 3V6.7C18 7.09782 18.158 7.47936 18.4393 7.76066C18.7206 8.04196 19.1022 8.2 19.5 8.2H20V9.8H19.5C19.1022 9.8 18.7206 9.95804 18.4393 10.2393C18.158 10.5206 18 10.9022 18 11.3Z"  />
</svg>