<svg width="14" height="14" viewBox="0 0 14 14"   xmlns="http://www.w3.org/2000/svg">
    <path d="M7 13.6667C3.318 13.6667 0.333336 10.682 0.333336 7.00004C0.333336 3.31804 3.318 0.333374 7 0.333374C10.682 0.333374 13.6667 3.31804 13.6667 7.00004C13.6667 10.682 10.682 13.6667 7 13.6667ZM7 12.3334C8.41449 12.3334 9.77105 11.7715 10.7712 10.7713C11.7714 9.77108 12.3333 8.41453 12.3333 7.00004C12.3333 5.58555 11.7714 4.229 10.7712 3.2288C9.77105 2.22861 8.41449 1.66671 7 1.66671C5.58551 1.66671 4.22896 2.22861 3.22877 3.2288C2.22857 4.229 1.66667 5.58555 1.66667 7.00004C1.66667 8.41453 2.22857 9.77108 3.22877 10.7713C4.22896 11.7715 5.58551 12.3334 7 12.3334ZM6.33534 9.66671L3.50667 6.83804L4.44934 5.89537L6.33534 7.78137L10.106 4.01004L11.0493 4.95271L6.33534 9.66671Z"  />
</svg>