<svg width="18" height="21" viewBox="0 0 18 21"   xmlns="http://www.w3.org/2000/svg">
    <path d="M13.33 11.5C14.1627 10.8455 14.8358 10.0103 15.2984 9.05749C15.7609 8.10467 16.0008 7.05916 16 6H18C18.001 7.41043 17.67 8.80129 17.0338 10.0601C16.3977 11.3189 15.4741 12.4103 14.338 13.246L16.866 17.624C17.1312 18.0834 17.203 18.6293 17.0658 19.1416C16.9285 19.6539 16.5933 20.0908 16.134 20.356L12.607 14.248C11.4696 14.7456 10.2414 15.0016 8.99997 15C7.75856 15.0016 6.53031 14.7456 5.39297 14.248L1.86597 20.356C1.40663 20.0908 1.07145 19.6539 0.934175 19.1416C0.796899 18.6293 0.868768 18.0834 1.13397 17.624L6.19697 8.854C5.69194 8.35744 5.32773 7.73574 5.14154 7.05239C4.95535 6.36905 4.95384 5.64852 5.13718 4.9644C5.32051 4.28028 5.68212 3.65707 6.18507 3.1584C6.68802 2.65973 7.31431 2.30347 7.99997 2.126V0H9.99997V2.126C10.6856 2.30347 11.3119 2.65973 11.8149 3.1584C12.3178 3.65707 12.6794 4.28028 12.8628 4.9644C13.0461 5.64852 13.0446 6.36905 12.8584 7.05239C12.6722 7.73574 12.308 8.35744 11.803 8.854L13.33 11.5ZM11.6 12.502L10.072 9.855C9.37122 10.0495 8.63072 10.0495 7.92997 9.855L6.40197 12.502C7.20597 12.823 8.08197 13 9.00097 13C9.91897 13 10.796 12.823 11.6 12.502ZM8.99997 7C9.26519 7 9.51954 6.89464 9.70708 6.70711C9.89462 6.51957 9.99997 6.26522 9.99997 6C9.99997 5.73478 9.89462 5.48043 9.70708 5.29289C9.51954 5.10536 9.26519 5 8.99997 5C8.73476 5 8.4804 5.10536 8.29287 5.29289C8.10533 5.48043 7.99997 5.73478 7.99997 6C7.99997 6.26522 8.10533 6.51957 8.29287 6.70711C8.4804 6.89464 8.73476 7 8.99997 7Z"  />
</svg>