<svg width="102" height="16" viewBox="0 0 102 16" xmlns="http://www.w3.org/2000/svg">
    <path d="M19.0277 2.62126H20.6935L18.3551 13.3787H17.5688L14.889 0.3125H10.3054L7.62555 13.3787H6.8392L4.50083 2.62126H6.16666V0.322582H0V2.62126H1.83137L4.7802 15.6874H9.67421L12.3644 2.61118H12.83L15.5201 15.6874H20.4141L23.3629 2.62126H25.1943V0.322582H19.0277V2.62126Z" />
    <path d="M72.6966 2.62131H74.3624L71.3722 13.3787H69.4787L66.4989 2.62131H68.1647V0.322632H61.998V2.62131H63.8294L67.5853 15.6875H73.2656L77.0215 2.62131H78.8632V0.322632H72.6966V2.62131Z" />
    <path d="M42.194 6.05923C42.1215 5.72653 42.0284 5.40391 41.9146 5.10145C40.8178 2.06679 37.9208 0 34.3408 0C31.3195 0 28.7846 1.47196 27.4085 3.80088C26.6945 5.00063 26.291 6.43226 26.291 8.00504C26.291 8.03529 26.291 8.06553 26.291 8.0857C26.291 8.18652 26.291 8.28733 26.3014 8.38815C26.3634 9.71897 26.7152 10.949 27.2946 11.9975C27.2946 12.0076 27.305 12.0076 27.305 12.0176C27.4912 12.3503 27.7085 12.673 27.9361 12.9754C27.9465 12.9855 27.9568 12.9956 27.9672 13.0057C28.1948 13.298 28.4535 13.5803 28.7225 13.8324C28.7328 13.8425 28.7535 13.8626 28.7639 13.8727C29.0329 14.1248 29.3226 14.3566 29.6227 14.5583C29.6434 14.5684 29.6641 14.5885 29.6847 14.5986C29.8399 14.6994 29.9951 14.8003 30.1503 14.891C30.1607 14.9011 30.171 14.9011 30.1917 14.9112C30.3366 14.9918 30.4918 15.0725 30.647 15.1531C30.6677 15.1632 30.6987 15.1733 30.7194 15.1934C30.885 15.2741 31.0505 15.3447 31.2161 15.4052C31.2471 15.4153 31.2678 15.4253 31.2988 15.4354C31.454 15.4959 31.6092 15.5463 31.7644 15.5967C31.7851 15.6068 31.8162 15.6169 31.8369 15.6169C32.0128 15.6673 32.1887 15.7177 32.3646 15.758C32.4059 15.7681 32.437 15.7782 32.4784 15.7782C32.6439 15.8185 32.8198 15.8488 32.9854 15.8689C33.006 15.8689 33.0267 15.879 33.0474 15.879C33.2337 15.9093 33.4199 15.9294 33.6062 15.9395C33.6475 15.9395 33.6993 15.9496 33.7407 15.9496C33.9373 15.9597 34.1235 15.9698 34.3304 15.9698C37.331 15.9698 39.2244 14.7095 40.4557 13.4493C40.9006 12.9754 41.2731 12.4612 41.5835 11.8967C40.8799 11.5841 40.1039 11.2413 39.4935 10.9691C39.1831 11.4631 38.7899 11.8967 38.345 12.2697C37.4965 12.9754 36.2342 13.6509 34.3408 13.6509C34.1752 13.6509 34.02 13.6408 33.8545 13.6308C33.8131 13.6308 33.7717 13.6207 33.72 13.6207C33.5958 13.6106 33.4717 13.5904 33.3475 13.5703C33.3061 13.5602 33.2751 13.5602 33.2337 13.5501C33.0785 13.5198 32.9336 13.4896 32.7888 13.4493C32.7577 13.4392 32.737 13.4291 32.706 13.419C32.5818 13.3888 32.468 13.3485 32.3542 13.3081C32.3128 13.288 32.2714 13.2779 32.23 13.2577C32.1162 13.2174 32.0024 13.167 31.8989 13.1166C31.8679 13.1065 31.8472 13.0964 31.8162 13.0762C31.6817 13.0158 31.5575 12.9452 31.4333 12.8645C31.392 12.8444 31.3609 12.8141 31.3195 12.794C31.2264 12.7335 31.1436 12.6831 31.0609 12.6226C31.0195 12.5923 30.9781 12.5621 30.9367 12.5318C30.8332 12.4512 30.7298 12.3705 30.6263 12.2798C30.6056 12.2596 30.5746 12.2294 30.5539 12.2092C30.4711 12.1285 30.378 12.0479 30.3056 11.9572C30.2642 11.9168 30.2331 11.8765 30.1917 11.8362C30.1297 11.7656 30.0676 11.695 30.0055 11.6144C29.9745 11.574 29.9434 11.5337 29.9124 11.4934C29.8296 11.3825 29.7468 11.2716 29.6744 11.1607C29.6434 11.1204 29.6227 11.08 29.602 11.0397C29.1881 10.3642 28.9087 9.57782 28.8053 8.73094H42.3802V7.8034C42.3802 7.28923 42.3285 6.78513 42.2457 6.3012C42.2353 6.24071 42.2146 6.14997 42.194 6.05923ZM29.902 4.34531C30.8539 3.13548 32.3852 2.30876 34.3408 2.30876C37.3724 2.30876 39.3589 4.30498 39.7107 6.61374H28.8777C29.0226 5.7971 29.3847 5.01071 29.902 4.34531Z" />
    <path d="M60.7467 6.05923C60.6743 5.72653 60.5812 5.40391 60.4673 5.10145C59.3706 2.06679 56.4632 0 52.8935 0C49.8723 0 47.3373 1.47196 45.9612 3.80088C45.2473 5.00063 44.8438 6.43226 44.8438 8.00504C44.8438 8.03529 44.8438 8.06553 44.8438 8.0857C44.8438 8.18652 44.8438 8.28733 44.8541 8.38815C44.8955 9.28544 45.061 10.1323 45.3507 10.9086C45.4852 11.2917 45.6611 11.6547 45.8474 11.9975C45.8474 12.0076 45.8577 12.0076 45.8577 12.0176C46.044 12.3503 46.2613 12.673 46.4889 12.9754C46.4992 12.9855 46.5096 12.9956 46.5199 13.0057C46.7476 13.298 47.0062 13.5803 47.2752 13.8324C47.2856 13.8425 47.3063 13.8626 47.3166 13.8727C47.5856 14.1248 47.8753 14.3566 48.1754 14.5583C48.1961 14.5684 48.2168 14.5885 48.2375 14.5986C48.3927 14.6994 48.5479 14.8003 48.7031 14.891C48.7134 14.9011 48.7238 14.9011 48.7445 14.9112C48.8893 14.9918 49.0445 15.0725 49.1997 15.1531C49.2204 15.1632 49.2515 15.1733 49.2722 15.1934C49.4377 15.2741 49.6033 15.3447 49.7688 15.4052C49.7998 15.4153 49.8205 15.4253 49.8516 15.4354C50.0068 15.4959 50.162 15.5463 50.3172 15.5967C50.3379 15.6068 50.3689 15.6169 50.3896 15.6169C50.5655 15.6673 50.7414 15.7177 50.9173 15.758C50.9587 15.7681 50.9897 15.7782 51.0311 15.7782C51.1967 15.8185 51.3725 15.8488 51.5381 15.8689C51.5588 15.8689 51.5795 15.879 51.6002 15.879C51.7864 15.9093 51.9727 15.9294 52.1589 15.9395C52.2003 15.9395 52.252 15.9496 52.2934 15.9496C52.49 15.9597 52.6762 15.9698 52.8832 15.9698C55.8837 15.9698 57.7772 14.7095 59.0084 13.4493C59.4534 12.9754 59.8258 12.4612 60.1362 11.8967C59.4327 11.5841 58.6567 11.2413 58.0462 10.9691C57.7358 11.4631 57.3426 11.8967 56.8977 12.2697C56.0493 12.9754 54.787 13.6509 52.8935 13.6509C52.728 13.6509 52.5728 13.6408 52.4072 13.6308C52.3658 13.6308 52.3245 13.6207 52.2727 13.6207C52.1486 13.6106 52.0244 13.5904 51.9002 13.5703C51.8588 13.5602 51.8278 13.5602 51.7864 13.5501C51.6312 13.5198 51.4864 13.4896 51.3415 13.4493C51.3105 13.4392 51.2898 13.4291 51.2587 13.419C51.1346 13.3888 51.0208 13.3485 50.9069 13.3081C50.8656 13.288 50.8242 13.2779 50.7828 13.2577C50.669 13.2174 50.5552 13.167 50.4517 13.1166C50.4206 13.1065 50.4 13.0964 50.3689 13.0762C50.2344 13.0158 50.1102 12.9452 49.9861 12.8645C49.9447 12.8444 49.9137 12.8141 49.8723 12.794C49.7791 12.7335 49.6964 12.6831 49.6136 12.6226C49.5722 12.5923 49.5308 12.5621 49.4894 12.5318C49.386 12.4512 49.2825 12.3705 49.179 12.2798C49.1583 12.2596 49.1273 12.2294 49.1066 12.2092C49.0238 12.1285 48.9307 12.0479 48.8583 11.9572C48.8169 11.9168 48.7859 11.8765 48.7445 11.8362C48.6824 11.7656 48.6203 11.695 48.5582 11.6144C48.5272 11.574 48.4962 11.5337 48.4651 11.4934C48.3823 11.3825 48.2996 11.2716 48.2271 11.1607C48.1961 11.1204 48.1754 11.08 48.1547 11.0397C47.7408 10.3642 47.4615 9.57782 47.358 8.73094H60.9433V7.8034C60.9433 7.28923 60.8916 6.78513 60.8088 6.3012C60.7777 6.24071 60.7674 6.14997 60.7467 6.05923ZM48.4548 4.34531C49.4067 3.13548 50.938 2.30876 52.8935 2.30876C55.9251 2.30876 57.9117 4.30498 58.2635 6.61374H47.4304C47.5753 5.7971 47.9271 5.01071 48.4548 4.34531Z" />
    <path d="M88.5999 6.8557C85.9822 6.33144 83.3955 5.80718 83.3955 4.30498C83.3955 3.41777 84.4716 2.30876 86.872 2.30876C88.5171 2.30876 89.5518 2.89351 90.1519 3.47826C90.5037 3.82105 90.7831 4.21424 90.9693 4.61752C91.6005 4.33522 92.4696 3.96219 93.256 3.60933C93.0387 3.14556 92.7697 2.71204 92.4489 2.30876C91.4349 1.1695 89.8001 0 86.8617 0C82.9196 0 80.8606 1.99622 80.8606 4.30498C80.8606 7.16824 83.4472 8.3075 86.065 8.83176C88.6827 9.35602 91.2694 9.88028 91.2694 11.3825C91.2694 12.6125 90.1933 13.6912 87.3273 13.6912C85.4649 13.6912 84.3888 13.0158 83.6645 12.31C83.2507 11.9067 82.9713 11.4531 82.754 10.9288C82.1022 11.2111 81.2434 11.5942 80.457 11.9471C80.7054 12.5016 81.0158 13.0158 81.3986 13.4795C82.4436 14.7398 84.275 16 87.3376 16C91.6005 16 93.8043 13.8425 93.8043 11.3825C93.8043 8.54946 91.2177 7.37996 88.5999 6.8557Z" />
    <path d="M99.1841 10.8078C100.746 10.8078 101.905 11.9269 101.905 13.4089C101.905 14.8809 100.757 16.0101 99.1841 16.0101C97.6114 16.0101 96.4629 14.891 96.4629 13.4089C96.4629 11.9269 97.6114 10.8078 99.1841 10.8078ZM99.1841 15.4858C100.488 15.4858 101.378 14.6188 101.378 13.3989C101.378 12.1789 100.488 11.3119 99.1841 11.3119C97.8804 11.3119 96.9906 12.1789 96.9906 13.3989C96.9906 14.6188 97.87 15.4858 99.1841 15.4858ZM98.1908 12.1285H99.3393C100.022 12.1285 100.384 12.4713 100.384 12.9956C100.384 13.3081 100.25 13.4997 100.095 13.6106C100.012 13.6811 99.9187 13.7316 99.8152 13.7618L100.395 14.6288H99.8152L99.2875 13.8626H98.7081V14.6288H98.1908V12.1285ZM99.3393 13.3484C99.7014 13.3484 99.867 13.1972 99.867 12.9956C99.867 12.7939 99.7118 12.6427 99.3393 12.6427H98.7081V13.3585H99.3393V13.3484Z" />
</svg>
