<svg width="242" height="242" viewBox="0 0 242 242" fill="none" xmlns="http://www.w3.org/2000/svg">
    <path opacity="0.08" d="M121.14 21.2827L191.751 50.5305L220.999 121.141L191.751 191.751L121.14 220.999L50.53 191.751L21.2822 121.141L50.53 50.5305L121.14 21.2827Z" fill="white"/>
    <path opacity="0.08" d="M121.141 64.6876L161.06 81.2226L177.595 121.142L161.06 161.06L121.141 177.595L81.2225 161.06L64.6875 121.142L81.2225 81.2226L121.141 64.6876Z" fill="white"/>
    <path opacity="0.06" d="M121.161 21.2362L191.771 50.5235L121.161 121.134L121.161 21.2362Z" fill="white"/>
    <path opacity="0.06" d="M21.2358 121.114L50.523 50.5032L121.133 121.114L21.2358 121.114Z" fill="white"/>
    <path opacity="0.06" d="M121.114 221.039L50.5033 191.752L121.114 121.141L121.114 221.039Z" fill="white"/>
    <path opacity="0.06" d="M221.039 121.162L191.751 191.772L121.141 121.162H221.039Z" fill="white"/>
    <path d="M121.141 108.659L129.968 112.315L133.624 121.141L129.968 129.967L121.141 133.623L112.315 129.967L108.659 121.141L112.315 112.315L121.141 108.659Z" fill="#393939"/>
    <path d="M120.999 23.2933C122.266 23.2933 123.293 22.2662 123.293 20.9993C123.293 19.7324 122.266 18.7053 120.999 18.7053C119.732 18.7053 118.705 19.7324 118.705 20.9993C118.705 22.2662 119.732 23.2933 120.999 23.2933Z" fill="white" stroke="black" stroke-width="1.53494"/>
    <circle cx="50.3878" cy="50.3894" r="2.29399" fill="white" stroke="black" stroke-width="1.53494"/>
    <path d="M21.0001 123.293C22.2671 123.293 23.2941 122.266 23.2941 120.999C23.2941 119.732 22.2671 118.705 21.0001 118.705C19.7332 118.705 18.7062 119.732 18.7062 120.999C18.7062 122.266 19.7332 123.293 21.0001 123.293Z" fill="white" stroke="black" stroke-width="1.53494"/>
    <path d="M50.7707 193.905C52.0376 193.905 53.0646 192.878 53.0646 191.611C53.0646 190.344 52.0376 189.317 50.7707 189.317C49.5037 189.317 48.4767 190.344 48.4767 191.611C48.4767 192.878 49.5037 193.905 50.7707 193.905Z" fill="white" stroke="black" stroke-width="1.53494"/>
    <path d="M50.3878 193.905C51.6548 193.905 52.6818 192.878 52.6818 191.611C52.6818 190.344 51.6548 189.317 50.3878 189.317C49.1209 189.317 48.0939 190.344 48.0939 191.611C48.0939 192.878 49.1209 193.905 50.3878 193.905Z" fill="white" stroke="black" stroke-width="1.53494"/>
    <circle cx="120.999" cy="221" r="2.29399" fill="white" stroke="black" stroke-width="1.53494"/>
    <circle cx="191.611" cy="191.611" r="2.29399" fill="white" stroke="black" stroke-width="1.53494"/>
    <circle cx="221" cy="120.999" r="2.29399" fill="white" stroke="black" stroke-width="1.53494"/>
    <path d="M191.611 52.6834C192.878 52.6834 193.905 51.6564 193.905 50.3894C193.905 49.1225 192.878 48.0954 191.611 48.0954C190.345 48.0954 189.317 49.1225 189.317 50.3894C189.317 51.6564 190.345 52.6834 191.611 52.6834Z" fill="white" stroke="black" stroke-width="1.53494"/>
    <g style="mix-blend-mode:screen" opacity="0.88">
        <path d="M90.3323 103.718L69.3977 113.24C58.4432 118.222 52.7128 130.409 55.8628 142.023L62.4991 166.494C64.5039 173.886 69.8428 179.92 76.9361 182.81L99.1641 191.865C111.74 196.989 126.087 190.934 131.189 178.349L141.624 152.614C143.722 147.441 147.519 143.136 152.391 140.41L166.284 132.637C177.042 126.617 181.671 113.554 177.102 102.103L169.55 83.176C167.919 79.0882 165.22 75.5138 161.734 72.8267L147.949 62.2001C135.045 52.2523 116.208 57.3984 110.154 72.5254L102.965 90.4879C100.615 96.3601 96.0898 101.099 90.3323 103.718Z" fill="#0F7BF5"/>
    </g>
    <g style="mix-blend-mode:screen" opacity="0.88">
        <path d="M99.1519 152.135L149.205 156.869C155.577 157.471 161.934 155.562 166.92 151.547L192.144 131.236C199.698 125.154 202.965 115.195 200.482 105.819L195.987 88.8515C191.719 72.7351 172.975 65.4651 158.955 74.4882L134.987 89.9148C127.306 94.8584 117.516 95.1306 109.572 90.6213L92.3148 80.8257C79.7739 73.707 63.8273 78.8744 57.845 91.9956L53.5508 101.414C48.449 112.604 52.4106 125.843 62.8205 132.391L88.3877 148.473C91.6399 150.519 95.3268 151.773 99.1519 152.135Z" fill="#ED4D34"/>
    </g>
</svg>