<svg width="794" height="644" viewBox="0 0 794 644" fill="none" xmlns="http://www.w3.org/2000/svg">
    <path opacity="0.08" d="M382.371 60.7432L567.37 137.372L643.999 322.371L567.37 507.371L382.371 584L197.371 507.371L120.742 322.371L197.371 137.372L382.371 60.7432Z" fill="white"/>
    <path opacity="0.08" d="M382.37 174.462L486.958 217.784L530.279 322.372L486.958 426.959L382.37 470.281L277.783 426.959L234.461 322.372L277.783 217.784L382.37 174.462Z" fill="white"/>
    <path opacity="0.06" d="M382.424 60.6185L567.424 137.351L382.424 322.35V60.6185Z" fill="white"/>
    <path opacity="0.06" d="M120.618 322.299L197.351 137.299L382.35 322.299H120.618Z" fill="white"/>
    <path opacity="0.06" d="M382.298 584.103L197.299 507.371L382.298 322.371V584.103Z" fill="white"/>
    <path opacity="0.06" d="M644.104 322.423L567.372 507.423L382.372 322.424L644.104 322.423Z" fill="white"/>
    <path d="M382.372 289.668L405.496 299.247L415.075 322.371L405.496 345.496L382.372 355.075L359.247 345.496L349.668 322.371L359.247 299.247L382.372 289.668Z" fill="#393939"/>
    <circle cx="382" cy="60" r="6" fill="white" stroke="black" stroke-width="4"/>
    <circle cx="197" cy="137" r="6" fill="white" stroke="black" stroke-width="4"/>
    <circle cx="120" cy="322" r="6" fill="white" stroke="black" stroke-width="4"/>
    <circle cx="198" cy="507" r="6" fill="white" stroke="black" stroke-width="4"/>
    <circle cx="197" cy="507" r="6" fill="white" stroke="black" stroke-width="4"/>
    <circle cx="382" cy="584" r="6" fill="white" stroke="black" stroke-width="4"/>
    <circle cx="567" cy="507" r="6" fill="white" stroke="black" stroke-width="4"/>
    <circle cx="644" cy="322" r="6" fill="white" stroke="black" stroke-width="4"/>
    <circle cx="567" cy="137" r="6" fill="white" stroke="black" stroke-width="4"/>
    <path d="M595.28 104H603.12V102.64H596.72V99.04H601.92V97.68H596.72V94.16H603.12V92.8H595.28V104ZM604.886 104H606.166V99.52C606.166 98.176 607.286 97.04 608.566 97.04C609.702 97.04 610.486 97.84 610.486 99.36V104H611.766V99.52C611.766 98.176 612.886 97.04 614.166 97.04C615.302 97.04 616.086 97.824 616.086 99.36V104H617.366V99.28C617.366 97.12 616.086 95.84 614.406 95.84C613.318 95.84 612.582 96.24 612.118 96.64C611.846 96.88 611.622 97.136 611.446 97.44H611.366C611.222 97.136 611.046 96.88 610.806 96.64C610.406 96.24 609.766 95.84 608.806 95.84C607.846 95.84 607.206 96.192 606.774 96.528C606.534 96.72 606.326 96.944 606.182 97.2H606.166V96H604.886V104ZM619.526 107.04H620.806V102.72H620.822L620.982 102.944C621.238 103.376 622.166 104.16 623.686 104.16C625.782 104.16 627.526 102.4 627.526 100C627.526 97.6 625.782 95.84 623.686 95.84C622.15 95.84 621.238 96.64 620.982 97.04L620.822 97.28H620.806V96H619.526V107.04ZM620.806 100C620.806 98.256 621.99 97.04 623.526 97.04C625.062 97.04 626.246 98.256 626.246 100C626.246 101.744 625.062 102.96 623.526 102.96C621.99 102.96 620.806 101.744 620.806 100ZM628.812 100C628.812 102.4 630.556 104.16 632.652 104.16C634.188 104.16 635.084 103.376 635.372 102.944L635.516 102.72H635.532V104H636.812V96H635.532V97.296H635.516L635.372 97.056C635.068 96.64 634.188 95.84 632.652 95.84C630.556 95.84 628.812 97.6 628.812 100ZM630.092 100C630.092 98.256 631.276 97.04 632.812 97.04C634.348 97.04 635.532 98.256 635.532 100C635.532 101.744 634.348 102.96 632.812 102.96C631.276 102.96 630.092 101.744 630.092 100ZM638.338 97.2H639.378V104H643.298V102.8H640.658V97.2H643.218V96H640.658V94.24H639.378V96H638.338V97.2ZM644.901 104H646.181V99.68C646.181 98.08 647.205 97.04 648.661 97.04C649.941 97.04 650.821 97.76 650.821 99.36V104H652.101V99.28C652.101 97.12 650.821 95.84 648.901 95.84C647.941 95.84 647.253 96.192 646.821 96.528C646.565 96.72 646.357 96.944 646.197 97.2H646.181V92.8H644.901V104ZM653.383 96L655.543 104H657.383L656.423 107.04H657.783L661.142 96H659.783L657.703 102.8H656.503L654.743 96H653.383Z" fill="white"/>
    <path d="M595.28 551H603.12V549.64H596.72V546.04H601.92V544.68H596.72V541.16H603.12V539.8H595.28V551ZM604.886 551H606.166V546.68C606.166 545.08 607.19 544.04 608.646 544.04C609.926 544.04 610.806 544.76 610.806 546.36V551H612.086V546.28C612.086 544.12 610.806 542.84 608.886 542.84C607.926 542.84 607.238 543.192 606.806 543.528C606.55 543.72 606.342 543.944 606.182 544.2H606.166V543H604.886V551ZM613.525 544.2H614.565V551H618.485V549.8H615.845V544.2H618.405V543H615.845V541.24H614.565V543H613.525V544.2ZM619.609 547C619.609 549.4 621.369 551.16 623.689 551.16C625.209 551.16 626.169 550.504 626.793 549.848C627.145 549.464 627.417 549.016 627.609 548.52H626.329C626.169 548.792 625.961 549.032 625.721 549.24C625.289 549.608 624.649 549.96 623.689 549.96C622.217 549.96 621.065 548.888 620.889 547.4H627.769V546.92C627.769 544.6 626.009 542.84 623.689 542.84C621.369 542.84 619.609 544.6 619.609 547ZM620.921 546.28C621.129 545.08 622.153 544.04 623.689 544.04C625.225 544.04 626.233 545.08 626.409 546.28H620.921ZM629.526 551H630.806V546.68C630.806 545.224 631.83 544.2 633.286 544.2H634.246V542.92H633.286C632.342 542.92 631.75 543.272 631.366 543.608C631.142 543.8 630.966 544.024 630.822 544.28H630.806V543H629.526V551ZM635.604 554.04H636.884V549.72H636.9L637.06 549.944C637.316 550.376 638.244 551.16 639.764 551.16C641.86 551.16 643.604 549.4 643.604 547C643.604 544.6 641.86 542.84 639.764 542.84C638.228 542.84 637.316 543.64 637.06 544.04L636.9 544.28H636.884V543H635.604V554.04ZM636.884 547C636.884 545.256 638.068 544.04 639.604 544.04C641.14 544.04 642.324 545.256 642.324 547C642.324 548.744 641.14 549.96 639.604 549.96C638.068 549.96 636.884 548.744 636.884 547ZM645.37 551H646.65V546.68C646.65 545.224 647.674 544.2 649.13 544.2H650.09V542.92H649.13C648.186 542.92 647.594 543.272 647.21 543.608C646.986 543.8 646.81 544.024 646.666 544.28H646.65V543H645.37V551ZM650.968 547C650.968 549.4 652.728 551.16 655.048 551.16C656.568 551.16 657.528 550.504 658.152 549.848C658.504 549.464 658.776 549.016 658.968 548.52H657.688C657.528 548.792 657.32 549.032 657.08 549.24C656.648 549.608 656.008 549.96 655.048 549.96C653.576 549.96 652.424 548.888 652.248 547.4H659.128V546.92C659.128 544.6 657.368 542.84 655.048 542.84C652.728 542.84 650.968 544.6 650.968 547ZM652.28 546.28C652.488 545.08 653.512 544.04 655.048 544.04C656.584 544.04 657.592 545.08 657.768 546.28H652.28ZM660.886 551H662.166V546.68C662.166 545.08 663.19 544.04 664.646 544.04C665.926 544.04 666.806 544.76 666.806 546.36V551H668.086V546.28C668.086 544.12 666.806 542.84 664.886 542.84C663.926 542.84 663.238 543.192 662.806 543.528C662.55 543.72 662.342 543.944 662.182 544.2H662.166V543H660.886V551ZM669.765 547C669.765 549.4 671.525 551.16 673.845 551.16C675.365 551.16 676.325 550.504 676.949 549.848C677.301 549.464 677.573 549.016 677.765 548.52H676.485C676.325 548.792 676.117 549.032 675.877 549.24C675.445 549.608 674.805 549.96 673.845 549.96C672.373 549.96 671.221 548.888 671.045 547.4H677.925V546.92C677.925 544.6 676.165 542.84 673.845 542.84C671.525 542.84 669.765 544.6 669.765 547ZM671.077 546.28C671.285 545.08 672.309 544.04 673.845 544.04C675.381 544.04 676.389 545.08 676.565 546.28H671.077ZM679.683 547.72C679.683 549.88 680.963 551.16 682.883 551.16C683.843 551.16 684.515 550.824 684.947 550.488C685.203 550.296 685.411 550.072 685.587 549.8H685.603V551H686.883V543H685.603V547.32C685.603 548.92 684.579 549.96 683.123 549.96C681.843 549.96 680.963 549.24 680.963 547.64V543H679.683V547.72ZM689.12 551H690.4V546.68C690.4 545.224 691.424 544.2 692.88 544.2H693.84V542.92H692.88C691.936 542.92 691.344 543.272 690.96 543.608C690.736 543.8 690.56 544.024 690.416 544.28H690.4V543H689.12V551ZM694.638 548.52C694.782 549.016 695.006 549.464 695.31 549.848C695.838 550.504 696.766 551.16 698.318 551.16C700.478 551.16 701.598 550.04 701.598 548.76C701.598 547.288 700.286 546.68 698.958 546.408C697.63 546.136 696.318 545.864 696.318 545.08C696.318 544.616 696.862 544.04 698.078 544.04C698.91 544.04 699.438 544.344 699.742 544.648C699.918 544.824 700.062 545.032 700.158 545.24H701.518C701.39 544.792 701.182 544.392 700.91 544.04C700.398 543.448 699.566 542.84 698.078 542.84C696.078 542.84 695.038 543.88 695.038 545.08C695.038 546.568 696.35 547.16 697.678 547.432C699.006 547.704 700.318 547.976 700.318 548.76C700.318 549.4 699.774 549.96 698.318 549.96C697.374 549.96 696.83 549.608 696.462 549.24C696.254 549.032 696.11 548.792 695.998 548.52H694.638ZM703.354 551H704.634V546.68C704.634 545.08 705.658 544.04 707.114 544.04C708.394 544.04 709.274 544.76 709.274 546.36V551H710.554V546.28C710.554 544.12 709.274 542.84 707.354 542.84C706.394 542.84 705.706 543.192 705.274 543.528C705.018 543.72 704.81 543.944 704.65 544.2H704.634V539.8H703.354V551ZM712.396 540.6C712.396 541.096 712.78 541.48 713.276 541.48C713.772 541.48 714.156 541.096 714.156 540.6C714.156 540.104 713.772 539.72 713.276 539.72C712.78 539.72 712.396 540.104 712.396 540.6ZM712.636 551H713.916V543H712.636V551ZM716.151 554.04H717.431V549.72H717.447L717.607 549.944C717.863 550.376 718.791 551.16 720.311 551.16C722.407 551.16 724.151 549.4 724.151 547C724.151 544.6 722.407 542.84 720.311 542.84C718.775 542.84 717.863 543.64 717.607 544.04L717.447 544.28H717.431V543H716.151V554.04ZM717.431 547C717.431 545.256 718.615 544.04 720.151 544.04C721.687 544.04 722.871 545.256 722.871 547C722.871 548.744 721.687 549.96 720.151 549.96C718.615 549.96 717.431 548.744 717.431 547Z" fill="white"/>
    <path d="M98.4388 545.4C98.4388 548.84 100.903 551.32 104.279 551.32C106.503 551.32 107.911 550.248 108.759 549.16C109.255 548.536 109.623 547.816 109.879 547H108.439C108.231 547.56 107.959 548.056 107.591 548.488C106.951 549.208 105.927 549.96 104.279 549.96C101.719 549.96 99.8788 548.136 99.8788 545.4C99.8788 542.664 101.719 540.84 104.279 540.84C105.879 540.84 106.887 541.528 107.511 542.2C107.879 542.6 108.151 543.064 108.359 543.56H109.799C109.575 542.808 109.223 542.12 108.743 541.528C107.927 540.504 106.535 539.48 104.279 539.48C100.903 539.48 98.4388 541.96 98.4388 545.4ZM111.636 551H112.916V546.68C112.916 545.224 113.94 544.2 115.396 544.2H116.356V542.92H115.396C114.452 542.92 113.86 543.272 113.476 543.608C113.252 543.8 113.076 544.024 112.932 544.28H112.916V543H111.636V551ZM117.234 547C117.234 549.4 118.994 551.16 121.314 551.16C122.834 551.16 123.794 550.504 124.418 549.848C124.77 549.464 125.042 549.016 125.234 548.52H123.954C123.794 548.792 123.586 549.032 123.346 549.24C122.914 549.608 122.274 549.96 121.314 549.96C119.842 549.96 118.69 548.888 118.514 547.4H125.394V546.92C125.394 544.6 123.634 542.84 121.314 542.84C118.994 542.84 117.234 544.6 117.234 547ZM118.546 546.28C118.754 545.08 119.778 544.04 121.314 544.04C122.85 544.04 123.858 545.08 124.034 546.28H118.546ZM126.671 547C126.671 549.4 128.415 551.16 130.511 551.16C132.047 551.16 132.943 550.376 133.231 549.944L133.375 549.72H133.391V551H134.671V543H133.391V544.296H133.375L133.231 544.056C132.927 543.64 132.047 542.84 130.511 542.84C128.415 542.84 126.671 544.6 126.671 547ZM127.951 547C127.951 545.256 129.135 544.04 130.671 544.04C132.207 544.04 133.391 545.256 133.391 547C133.391 548.744 132.207 549.96 130.671 549.96C129.135 549.96 127.951 548.744 127.951 547ZM136.197 544.2H137.237V551H141.157V549.8H138.517V544.2H141.077V543H138.517V541.24H137.237V543H136.197V544.2ZM142.521 540.6C142.521 541.096 142.905 541.48 143.401 541.48C143.897 541.48 144.281 541.096 144.281 540.6C144.281 540.104 143.897 539.72 143.401 539.72C142.905 539.72 142.521 540.104 142.521 540.6ZM142.761 551H144.041V543H142.761V551ZM145.476 543L147.716 551H150.996L153.236 543H151.876L150.036 549.8H148.676L146.836 543H145.476ZM154.443 540.6C154.443 541.096 154.827 541.48 155.323 541.48C155.819 541.48 156.203 541.096 156.203 540.6C156.203 540.104 155.819 539.72 155.323 539.72C154.827 539.72 154.443 540.104 154.443 540.6ZM154.683 551H155.963V543H154.683V551ZM157.478 544.2H158.518V551H162.438V549.8H159.798V544.2H162.358V543H159.798V541.24H158.518V543H157.478V544.2ZM163.242 543L165.402 551H167.242L166.282 554.04H167.642L171.002 543H169.642L167.562 549.8H166.362L164.602 543H163.242Z" fill="white"/>
    <path d="M50.6106 98.4C50.6106 101.84 53.0746 104.32 56.4506 104.32C58.6746 104.32 60.0826 103.248 60.9306 102.16C61.4266 101.536 61.7946 100.816 62.0506 100H60.6106C60.4026 100.56 60.1306 101.056 59.7626 101.488C59.1226 102.208 58.0986 102.96 56.4506 102.96C53.8906 102.96 52.0506 101.136 52.0506 98.4C52.0506 95.664 53.8906 93.84 56.4506 93.84C58.0506 93.84 59.0586 94.528 59.6826 95.2C60.0506 95.6 60.3226 96.064 60.5306 96.56H61.9706C61.7466 95.808 61.3946 95.12 60.9146 94.528C60.0986 93.504 58.7066 92.48 56.4506 92.48C53.0746 92.48 50.6106 94.96 50.6106 98.4ZM63.3275 100C63.3275 102.4 65.0875 104.16 67.4875 104.16C69.8875 104.16 71.6475 102.4 71.6475 100C71.6475 97.6 69.8875 95.84 67.4875 95.84C65.0875 95.84 63.3275 97.6 63.3275 100ZM64.6075 100C64.6075 98.256 65.8235 97.04 67.4875 97.04C69.1515 97.04 70.3675 98.256 70.3675 100C70.3675 101.744 69.1515 102.96 67.4875 102.96C65.8235 102.96 64.6075 101.744 64.6075 100ZM73.4013 104H74.6813V99.52C74.6813 98.176 75.8013 97.04 77.0813 97.04C78.2173 97.04 79.0013 97.84 79.0013 99.36V104H80.2812V99.52C80.2812 98.176 81.4013 97.04 82.6813 97.04C83.8173 97.04 84.6013 97.824 84.6013 99.36V104H85.8813V99.28C85.8813 97.12 84.6013 95.84 82.9213 95.84C81.8333 95.84 81.0972 96.24 80.6333 96.64C80.3612 96.88 80.1373 97.136 79.9613 97.44H79.8813C79.7373 97.136 79.5613 96.88 79.3213 96.64C78.9213 96.24 78.2813 95.84 77.3213 95.84C76.3613 95.84 75.7213 96.192 75.2893 96.528C75.0493 96.72 74.8413 96.944 74.6973 97.2H74.6813V96H73.4013V104ZM88.0419 104H89.3219V99.52C89.3219 98.176 90.4419 97.04 91.7219 97.04C92.8579 97.04 93.6419 97.84 93.6419 99.36V104H94.9219V99.52C94.9219 98.176 96.0419 97.04 97.3219 97.04C98.4579 97.04 99.2419 97.824 99.2419 99.36V104H100.522V99.28C100.522 97.12 99.2419 95.84 97.5619 95.84C96.4739 95.84 95.7379 96.24 95.2739 96.64C95.0019 96.88 94.7779 97.136 94.6019 97.44H94.5219C94.3779 97.136 94.2019 96.88 93.9619 96.64C93.5619 96.24 92.9219 95.84 91.9619 95.84C91.0019 95.84 90.3619 96.192 89.9299 96.528C89.6899 96.72 89.4819 96.944 89.3379 97.2H89.3219V96H88.0419V104ZM102.683 100.72C102.683 102.88 103.963 104.16 105.883 104.16C106.843 104.16 107.515 103.824 107.947 103.488C108.203 103.296 108.411 103.072 108.587 102.8H108.603V104H109.883V96H108.603V100.32C108.603 101.92 107.579 102.96 106.123 102.96C104.843 102.96 103.963 102.24 103.963 100.64V96H102.683V100.72ZM112.12 104H113.4V99.68C113.4 98.08 114.424 97.04 115.88 97.04C117.16 97.04 118.04 97.76 118.04 99.36V104H119.32V99.28C119.32 97.12 118.04 95.84 116.12 95.84C115.16 95.84 114.472 96.192 114.04 96.528C113.784 96.72 113.576 96.944 113.416 97.2H113.4V96H112.12V104ZM121.239 93.6C121.239 94.096 121.623 94.48 122.119 94.48C122.615 94.48 122.999 94.096 122.999 93.6C122.999 93.104 122.615 92.72 122.119 92.72C121.623 92.72 121.239 93.104 121.239 93.6ZM121.479 104H122.759V96H121.479V104ZM124.515 100C124.515 102.4 126.275 104.16 128.515 104.16C130.163 104.16 131.107 103.408 131.699 102.688C132.035 102.256 132.291 101.76 132.435 101.2H131.155C131.027 101.536 130.851 101.824 130.611 102.08C130.211 102.528 129.555 102.96 128.515 102.96C127.059 102.96 125.795 101.776 125.795 100C125.795 98.256 126.979 97.04 128.515 97.04C129.523 97.04 130.163 97.44 130.547 97.84C130.771 98.08 130.947 98.336 131.075 98.64H132.355C132.211 98.128 131.971 97.664 131.635 97.248C131.075 96.56 130.115 95.84 128.515 95.84C126.275 95.84 124.515 97.6 124.515 100ZM133.562 100C133.562 102.4 135.306 104.16 137.402 104.16C138.938 104.16 139.834 103.376 140.122 102.944L140.266 102.72H140.282V104H141.562V96H140.282V97.296H140.266L140.122 97.056C139.818 96.64 138.938 95.84 137.402 95.84C135.306 95.84 133.562 97.6 133.562 100ZM134.842 100C134.842 98.256 136.026 97.04 137.562 97.04C139.098 97.04 140.282 98.256 140.282 100C140.282 101.744 139.098 102.96 137.562 102.96C136.026 102.96 134.842 101.744 134.842 100ZM143.088 97.2H144.128V104H148.048V102.8H145.408V97.2H147.968V96H145.408V94.24H144.128V96H143.088V97.2ZM149.411 93.6C149.411 94.096 149.795 94.48 150.291 94.48C150.787 94.48 151.171 94.096 151.171 93.6C151.171 93.104 150.787 92.72 150.291 92.72C149.795 92.72 149.411 93.104 149.411 93.6ZM149.651 104H150.931V96H149.651V104ZM152.687 100C152.687 102.4 154.447 104.16 156.847 104.16C159.247 104.16 161.007 102.4 161.007 100C161.007 97.6 159.247 95.84 156.847 95.84C154.447 95.84 152.687 97.6 152.687 100ZM153.967 100C153.967 98.256 155.183 97.04 156.847 97.04C158.511 97.04 159.727 98.256 159.727 100C159.727 101.744 158.511 102.96 156.847 102.96C155.183 102.96 153.967 101.744 153.967 100ZM162.761 104H164.041V99.68C164.041 98.08 165.065 97.04 166.521 97.04C167.801 97.04 168.681 97.76 168.681 99.36V104H169.961V99.28C169.961 97.12 168.681 95.84 166.761 95.84C165.801 95.84 165.113 96.192 164.681 96.528C164.425 96.72 164.217 96.944 164.057 97.2H164.041V96H162.761V104Z" fill="white"/>
    <path d="M340.491 637H341.931V632.04H344.171L347.691 637H349.451L345.371 631.24L349.291 625.8H347.611L344.091 630.68H341.931V625.8H340.491V637ZM350.737 637H352.017V632.68C352.017 631.08 353.041 630.04 354.497 630.04C355.777 630.04 356.657 630.76 356.657 632.36V637H357.937V632.28C357.937 630.12 356.657 628.84 354.737 628.84C353.777 628.84 353.089 629.192 352.657 629.528C352.401 629.72 352.193 629.944 352.033 630.2H352.017V629H350.737V637ZM359.617 633C359.617 635.4 361.377 637.16 363.777 637.16C366.177 637.16 367.937 635.4 367.937 633C367.937 630.6 366.177 628.84 363.777 628.84C361.377 628.84 359.617 630.6 359.617 633ZM360.897 633C360.897 631.256 362.113 630.04 363.777 630.04C365.441 630.04 366.657 631.256 366.657 633C366.657 634.744 365.441 635.96 363.777 635.96C362.113 635.96 360.897 634.744 360.897 633ZM369.05 629L370.81 637H373.29L374.65 630.2H374.89L376.25 637H378.73L380.49 629H379.13L377.69 635.8H377.29L375.93 629H373.61L372.25 635.8H371.85L370.41 629H369.05ZM382.097 637H385.217V635.8H383.377V625.8H382.097V637ZM386.023 633C386.023 635.4 387.783 637.16 390.103 637.16C391.623 637.16 392.583 636.504 393.207 635.848C393.559 635.464 393.831 635.016 394.023 634.52H392.743C392.583 634.792 392.375 635.032 392.135 635.24C391.703 635.608 391.063 635.96 390.103 635.96C388.631 635.96 387.479 634.888 387.303 633.4H394.183V632.92C394.183 630.6 392.423 628.84 390.103 628.84C387.783 628.84 386.023 630.6 386.023 633ZM387.335 632.28C387.543 631.08 388.567 630.04 390.103 630.04C391.639 630.04 392.647 631.08 392.823 632.28H387.335ZM395.46 633C395.46 635.4 397.204 637.16 399.3 637.16C400.836 637.16 401.732 636.376 402.02 635.944L402.164 635.72H402.18V637H403.46V625.8H402.18V630.28H402.164L402.02 630.04C401.732 629.64 400.836 628.84 399.3 628.84C397.204 628.84 395.46 630.6 395.46 633ZM396.74 633C396.74 631.256 397.924 630.04 399.46 630.04C400.996 630.04 402.18 631.256 402.18 633C402.18 634.744 400.996 635.96 399.46 635.96C397.924 635.96 396.74 634.744 396.74 633ZM405.226 633C405.226 635.4 406.97 637.16 409.066 637.16C410.602 637.16 411.498 636.376 411.786 635.944L411.93 635.72H411.946V638.84H406.346V640.04H413.226V629H411.946V630.28H411.93L411.786 630.04C411.498 629.64 410.602 628.84 409.066 628.84C406.97 628.84 405.226 630.6 405.226 633ZM406.506 633C406.506 631.256 407.69 630.04 409.226 630.04C410.762 630.04 411.946 631.256 411.946 633C411.946 634.744 410.762 635.96 409.226 635.96C407.69 635.96 406.506 634.744 406.506 633ZM414.992 633C414.992 635.4 416.752 637.16 419.072 637.16C420.592 637.16 421.552 636.504 422.176 635.848C422.528 635.464 422.8 635.016 422.992 634.52H421.712C421.552 634.792 421.344 635.032 421.104 635.24C420.672 635.608 420.032 635.96 419.072 635.96C417.6 635.96 416.448 634.888 416.272 633.4H423.152V632.92C423.152 630.6 421.392 628.84 419.072 628.84C416.752 628.84 414.992 630.6 414.992 633ZM416.304 632.28C416.512 631.08 417.536 630.04 419.072 630.04C420.608 630.04 421.616 631.08 421.792 632.28H416.304Z" fill="white"/>
    <path d="M321.507 17H322.947V13.16H326.227C328.787 13.16 330.387 11.576 330.387 9.48C330.387 7.384 328.787 5.8 326.227 5.8H321.507V17ZM322.947 11.8V7.16H326.227C328.003 7.16 328.947 8.12 328.947 9.48C328.947 10.84 328.003 11.8 326.227 11.8H322.947ZM332.065 13.72C332.065 15.88 333.345 17.16 335.265 17.16C336.225 17.16 336.897 16.824 337.329 16.488C337.585 16.296 337.793 16.072 337.969 15.8H337.985V17H339.265V9H337.985V13.32C337.985 14.92 336.961 15.96 335.505 15.96C334.225 15.96 333.345 15.24 333.345 13.64V9H332.065V13.72ZM341.503 17H342.783V15.72H342.799L342.959 15.944C343.215 16.376 344.143 17.16 345.663 17.16C347.759 17.16 349.503 15.4 349.503 13C349.503 10.6 347.759 8.84 345.663 8.84C344.127 8.84 343.215 9.64 342.959 10.04L342.799 10.28H342.783V5.8H341.503V17ZM342.783 13C342.783 11.256 343.967 10.04 345.503 10.04C347.039 10.04 348.223 11.256 348.223 13C348.223 14.744 347.039 15.96 345.503 15.96C343.967 15.96 342.783 14.744 342.783 13ZM351.268 17H354.388V15.8H352.548V5.8H351.268V17ZM355.435 6.6C355.435 7.096 355.819 7.48 356.315 7.48C356.811 7.48 357.195 7.096 357.195 6.6C357.195 6.104 356.811 5.72 356.315 5.72C355.819 5.72 355.435 6.104 355.435 6.6ZM355.675 17H356.955V9H355.675V17ZM358.71 13C358.71 15.4 360.47 17.16 362.71 17.16C364.358 17.16 365.302 16.408 365.894 15.688C366.23 15.256 366.486 14.76 366.63 14.2H365.35C365.222 14.536 365.046 14.824 364.806 15.08C364.406 15.528 363.75 15.96 362.71 15.96C361.254 15.96 359.99 14.776 359.99 13C359.99 11.256 361.174 10.04 362.71 10.04C363.718 10.04 364.358 10.44 364.742 10.84C364.966 11.08 365.142 11.336 365.27 11.64H366.55C366.406 11.128 366.166 10.664 365.83 10.248C365.27 9.56 364.31 8.84 362.71 8.84C360.47 8.84 358.71 10.6 358.71 13ZM372.162 14.52C372.306 15.016 372.53 15.464 372.834 15.848C373.362 16.504 374.29 17.16 375.842 17.16C378.002 17.16 379.122 16.04 379.122 14.76C379.122 13.288 377.81 12.68 376.482 12.408C375.154 12.136 373.842 11.864 373.842 11.08C373.842 10.616 374.386 10.04 375.602 10.04C376.434 10.04 376.962 10.344 377.266 10.648C377.442 10.824 377.586 11.032 377.682 11.24H379.042C378.914 10.792 378.706 10.392 378.434 10.04C377.922 9.448 377.09 8.84 375.602 8.84C373.602 8.84 372.562 9.88 372.562 11.08C372.562 12.568 373.874 13.16 375.202 13.432C376.53 13.704 377.842 13.976 377.842 14.76C377.842 15.4 377.298 15.96 375.842 15.96C374.898 15.96 374.354 15.608 373.986 15.24C373.778 15.032 373.634 14.792 373.522 14.52H372.162ZM380.878 20.04H382.158V15.72H382.174L382.334 15.944C382.59 16.376 383.518 17.16 385.038 17.16C387.134 17.16 388.878 15.4 388.878 13C388.878 10.6 387.134 8.84 385.038 8.84C383.502 8.84 382.59 9.64 382.334 10.04L382.174 10.28H382.158V9H380.878V20.04ZM382.158 13C382.158 11.256 383.342 10.04 384.878 10.04C386.414 10.04 387.598 11.256 387.598 13C387.598 14.744 386.414 15.96 384.878 15.96C383.342 15.96 382.158 14.744 382.158 13ZM390.163 13C390.163 15.4 391.923 17.16 394.243 17.16C395.763 17.16 396.723 16.504 397.347 15.848C397.699 15.464 397.971 15.016 398.163 14.52H396.883C396.723 14.792 396.515 15.032 396.275 15.24C395.843 15.608 395.203 15.96 394.243 15.96C392.771 15.96 391.619 14.888 391.443 13.4H398.323V12.92C398.323 10.6 396.563 8.84 394.243 8.84C391.923 8.84 390.163 10.6 390.163 13ZM391.475 12.28C391.683 11.08 392.707 10.04 394.243 10.04C395.779 10.04 396.787 11.08 396.963 12.28H391.475ZM399.601 13C399.601 15.4 401.345 17.16 403.441 17.16C404.977 17.16 405.873 16.376 406.161 15.944L406.305 15.72H406.321V17H407.601V9H406.321V10.296H406.305L406.161 10.056C405.857 9.64 404.977 8.84 403.441 8.84C401.345 8.84 399.601 10.6 399.601 13ZM400.881 13C400.881 11.256 402.065 10.04 403.601 10.04C405.137 10.04 406.321 11.256 406.321 13C406.321 14.744 405.137 15.96 403.601 15.96C402.065 15.96 400.881 14.744 400.881 13ZM409.847 17H411.127V13.4H412.727L415.447 17H417.047L413.847 12.76L416.807 9H415.287L412.727 12.2H411.127V5.8H409.847V17ZM418.013 6.6C418.013 7.096 418.397 7.48 418.893 7.48C419.389 7.48 419.773 7.096 419.773 6.6C419.773 6.104 419.389 5.72 418.893 5.72C418.397 5.72 418.013 6.104 418.013 6.6ZM418.253 17H419.533V9H418.253V17ZM421.768 17H423.048V12.68C423.048 11.08 424.072 10.04 425.528 10.04C426.808 10.04 427.688 10.76 427.688 12.36V17H428.968V12.28C428.968 10.12 427.688 8.84 425.768 8.84C424.808 8.84 424.12 9.192 423.688 9.528C423.432 9.72 423.224 9.944 423.064 10.2H423.048V9H421.768V17ZM430.648 13C430.648 15.4 432.392 17.16 434.488 17.16C436.024 17.16 436.92 16.376 437.208 15.944L437.352 15.72H437.368V18.84H431.768V20.04H438.648V9H437.368V10.28H437.352L437.208 10.04C436.92 9.64 436.024 8.84 434.488 8.84C432.392 8.84 430.648 10.6 430.648 13ZM431.928 13C431.928 11.256 433.112 10.04 434.648 10.04C436.184 10.04 437.368 11.256 437.368 13C437.368 14.744 436.184 15.96 434.648 15.96C433.112 15.96 431.928 14.744 431.928 13Z" fill="white"/>
    <path d="M681.28 327H682.72V322.84H685.68L688.4 327H690.08L687.2 322.68C689.104 322.28 690.16 320.984 690.16 319.32C690.16 317.336 688.64 315.8 686.08 315.8H681.28V327ZM682.72 321.48V317.16H686.08C687.856 317.16 688.72 318.04 688.72 319.32C688.72 320.6 687.856 321.48 686.08 321.48H682.72ZM691.281 323C691.281 325.4 693.041 327.16 695.361 327.16C696.881 327.16 697.841 326.504 698.465 325.848C698.817 325.464 699.089 325.016 699.281 324.52H698.001C697.841 324.792 697.633 325.032 697.393 325.24C696.961 325.608 696.321 325.96 695.361 325.96C693.889 325.96 692.737 324.888 692.561 323.4H699.441V322.92C699.441 320.6 697.681 318.84 695.361 318.84C693.041 318.84 691.281 320.6 691.281 323ZM692.593 322.28C692.801 321.08 693.825 320.04 695.361 320.04C696.897 320.04 697.905 321.08 698.081 322.28H692.593ZM700.638 324.52C700.782 325.016 701.006 325.464 701.31 325.848C701.838 326.504 702.766 327.16 704.318 327.16C706.478 327.16 707.598 326.04 707.598 324.76C707.598 323.288 706.286 322.68 704.958 322.408C703.63 322.136 702.318 321.864 702.318 321.08C702.318 320.616 702.862 320.04 704.078 320.04C704.91 320.04 705.438 320.344 705.742 320.648C705.918 320.824 706.062 321.032 706.158 321.24H707.518C707.39 320.792 707.182 320.392 706.91 320.04C706.398 319.448 705.566 318.84 704.078 318.84C702.078 318.84 701.038 319.88 701.038 321.08C701.038 322.568 702.35 323.16 703.678 323.432C705.006 323.704 706.318 323.976 706.318 324.76C706.318 325.4 705.774 325.96 704.318 325.96C703.374 325.96 702.83 325.608 702.462 325.24C702.254 325.032 702.11 324.792 701.998 324.52H700.638ZM708.874 323C708.874 325.4 710.634 327.16 712.954 327.16C714.474 327.16 715.434 326.504 716.058 325.848C716.41 325.464 716.682 325.016 716.874 324.52H715.594C715.434 324.792 715.226 325.032 714.986 325.24C714.554 325.608 713.914 325.96 712.954 325.96C711.482 325.96 710.33 324.888 710.154 323.4H717.034V322.92C717.034 320.6 715.274 318.84 712.954 318.84C710.634 318.84 708.874 320.6 708.874 323ZM710.186 322.28C710.394 321.08 711.418 320.04 712.954 320.04C714.49 320.04 715.498 321.08 715.674 322.28H710.186ZM718.312 323C718.312 325.4 720.056 327.16 722.152 327.16C723.688 327.16 724.584 326.376 724.872 325.944L725.016 325.72H725.032V327H726.312V319H725.032V320.296H725.016L724.872 320.056C724.568 319.64 723.688 318.84 722.152 318.84C720.056 318.84 718.312 320.6 718.312 323ZM719.592 323C719.592 321.256 720.776 320.04 722.312 320.04C723.848 320.04 725.032 321.256 725.032 323C725.032 324.744 723.848 325.96 722.312 325.96C720.776 325.96 719.592 324.744 719.592 323ZM728.558 327H729.838V322.68C729.838 321.224 730.862 320.2 732.318 320.2H733.278V318.92H732.318C731.374 318.92 730.782 319.272 730.398 319.608C730.174 319.8 729.998 320.024 729.854 320.28H729.838V319H728.558V327ZM734.156 323C734.156 325.4 735.916 327.16 738.156 327.16C739.804 327.16 740.748 326.408 741.34 325.688C741.676 325.256 741.932 324.76 742.076 324.2H740.796C740.668 324.536 740.492 324.824 740.252 325.08C739.852 325.528 739.196 325.96 738.156 325.96C736.7 325.96 735.436 324.776 735.436 323C735.436 321.256 736.62 320.04 738.156 320.04C739.164 320.04 739.804 320.44 740.188 320.84C740.412 321.08 740.588 321.336 740.716 321.64H741.996C741.852 321.128 741.612 320.664 741.276 320.248C740.716 319.56 739.756 318.84 738.156 318.84C735.916 318.84 734.156 320.6 734.156 323ZM743.683 327H744.963V322.68C744.963 321.08 745.987 320.04 747.443 320.04C748.723 320.04 749.603 320.76 749.603 322.36V327H750.883V322.28C750.883 320.12 749.603 318.84 747.683 318.84C746.723 318.84 746.035 319.192 745.603 319.528C745.347 319.72 745.139 319.944 744.979 320.2H744.963V315.8H743.683V327ZM756.888 324.52C757.032 325.016 757.256 325.464 757.56 325.848C758.088 326.504 759.016 327.16 760.568 327.16C762.728 327.16 763.848 326.04 763.848 324.76C763.848 323.288 762.536 322.68 761.208 322.408C759.88 322.136 758.568 321.864 758.568 321.08C758.568 320.616 759.112 320.04 760.328 320.04C761.16 320.04 761.688 320.344 761.992 320.648C762.168 320.824 762.312 321.032 762.408 321.24H763.768C763.64 320.792 763.432 320.392 763.16 320.04C762.648 319.448 761.816 318.84 760.328 318.84C758.328 318.84 757.288 319.88 757.288 321.08C757.288 322.568 758.6 323.16 759.928 323.432C761.256 323.704 762.568 323.976 762.568 324.76C762.568 325.4 762.024 325.96 760.568 325.96C759.624 325.96 759.08 325.608 758.712 325.24C758.504 325.032 758.36 324.792 758.248 324.52H756.888ZM765.604 327H766.884V323.4H768.484L771.204 327H772.804L769.604 322.76L772.564 319H771.044L768.484 322.2H766.884V315.8H765.604V327ZM773.771 316.6C773.771 317.096 774.155 317.48 774.651 317.48C775.147 317.48 775.531 317.096 775.531 316.6C775.531 316.104 775.147 315.72 774.651 315.72C774.155 315.72 773.771 316.104 773.771 316.6ZM774.011 327H775.291V319H774.011V327ZM777.526 327H780.646V325.8H778.806V315.8H777.526V327ZM781.933 327H785.053V325.8H783.213V315.8H781.933V327ZM785.779 324.52C785.923 325.016 786.147 325.464 786.451 325.848C786.979 326.504 787.907 327.16 789.459 327.16C791.619 327.16 792.739 326.04 792.739 324.76C792.739 323.288 791.427 322.68 790.099 322.408C788.771 322.136 787.459 321.864 787.459 321.08C787.459 320.616 788.003 320.04 789.219 320.04C790.051 320.04 790.579 320.344 790.883 320.648C791.059 320.824 791.203 321.032 791.299 321.24H792.659C792.531 320.792 792.323 320.392 792.051 320.04C791.539 319.448 790.707 318.84 789.219 318.84C787.219 318.84 786.179 319.88 786.179 321.08C786.179 322.568 787.491 323.16 788.819 323.432C790.147 323.704 791.459 323.976 791.459 324.76C791.459 325.4 790.915 325.96 789.459 325.96C788.515 325.96 787.971 325.608 787.603 325.24C787.395 325.032 787.251 324.792 787.139 324.52H785.779Z" fill="white"/>
    <path d="M1.51438 327H9.35438V325.64H2.95438V322.04H8.15438V320.68H2.95438V317.16H9.35438V315.8H1.51438V327ZM10.16 327H11.6L13.6 323.48H14.32L16.32 327H17.76L15.36 322.92L17.68 319H16.24L14.32 322.28H13.6L11.68 319H10.24L12.56 322.92L10.16 327ZM19.0419 330.04H20.3219V325.72H20.3379L20.4979 325.944C20.7539 326.376 21.6819 327.16 23.2019 327.16C25.2979 327.16 27.0419 325.4 27.0419 323C27.0419 320.6 25.2979 318.84 23.2019 318.84C21.6659 318.84 20.7539 319.64 20.4979 320.04L20.3379 320.28H20.3219V319H19.0419V330.04ZM20.3219 323C20.3219 321.256 21.5059 320.04 23.0419 320.04C24.5779 320.04 25.7619 321.256 25.7619 323C25.7619 324.744 24.5779 325.96 23.0419 325.96C21.5059 325.96 20.3219 324.744 20.3219 323ZM28.3275 323C28.3275 325.4 30.0875 327.16 32.4075 327.16C33.9275 327.16 34.8875 326.504 35.5115 325.848C35.8635 325.464 36.1355 325.016 36.3275 324.52H35.0475C34.8875 324.792 34.6795 325.032 34.4395 325.24C34.0075 325.608 33.3675 325.96 32.4075 325.96C30.9355 325.96 29.7835 324.888 29.6075 323.4H36.4875V322.92C36.4875 320.6 34.7275 318.84 32.4075 318.84C30.0875 318.84 28.3275 320.6 28.3275 323ZM29.6395 322.28C29.8475 321.08 30.8715 320.04 32.4075 320.04C33.9435 320.04 34.9515 321.08 35.1275 322.28H29.6395ZM38.245 327H39.525V322.68C39.525 321.224 40.549 320.2 42.005 320.2H42.965V318.92H42.005C41.061 318.92 40.469 319.272 40.085 319.608C39.861 319.8 39.685 320.024 39.541 320.28H39.525V319H38.245V327ZM44.0831 316.6C44.0831 317.096 44.4671 317.48 44.9631 317.48C45.4591 317.48 45.8431 317.096 45.8431 316.6C45.8431 316.104 45.4591 315.72 44.9631 315.72C44.4671 315.72 44.0831 316.104 44.0831 316.6ZM44.3231 327H45.6031V319H44.3231V327ZM47.3588 323C47.3588 325.4 49.1188 327.16 51.4388 327.16C52.9588 327.16 53.9188 326.504 54.5428 325.848C54.8948 325.464 55.1667 325.016 55.3588 324.52H54.0788C53.9188 324.792 53.7108 325.032 53.4708 325.24C53.0388 325.608 52.3988 325.96 51.4388 325.96C49.9668 325.96 48.8148 324.888 48.6388 323.4H55.5188V322.92C55.5188 320.6 53.7588 318.84 51.4388 318.84C49.1188 318.84 47.3588 320.6 47.3588 323ZM48.6708 322.28C48.8788 321.08 49.9028 320.04 51.4388 320.04C52.9748 320.04 53.9828 321.08 54.1588 322.28H48.6708ZM57.2763 327H58.5563V322.68C58.5563 321.08 59.5803 320.04 61.0363 320.04C62.3163 320.04 63.1963 320.76 63.1963 322.36V327H64.4763V322.28C64.4763 320.12 63.1963 318.84 61.2763 318.84C60.3163 318.84 59.6283 319.192 59.1963 319.528C58.9403 319.72 58.7323 319.944 58.5723 320.2H58.5563V319H57.2763V327ZM66.1556 323C66.1556 325.4 67.9156 327.16 70.1556 327.16C71.8036 327.16 72.7476 326.408 73.3396 325.688C73.6756 325.256 73.9316 324.76 74.0756 324.2H72.7956C72.6676 324.536 72.4916 324.824 72.2516 325.08C71.8516 325.528 71.1956 325.96 70.1556 325.96C68.6996 325.96 67.4356 324.776 67.4356 323C67.4356 321.256 68.6196 320.04 70.1556 320.04C71.1636 320.04 71.8036 320.44 72.1876 320.84C72.4116 321.08 72.5876 321.336 72.7156 321.64H73.9956C73.8516 321.128 73.6116 320.664 73.2756 320.248C72.7156 319.56 71.7556 318.84 70.1556 318.84C67.9156 318.84 66.1556 320.6 66.1556 323ZM75.2025 323C75.2025 325.4 76.9625 327.16 79.2825 327.16C80.8025 327.16 81.7625 326.504 82.3865 325.848C82.7385 325.464 83.0105 325.016 83.2025 324.52H81.9225C81.7625 324.792 81.5545 325.032 81.3145 325.24C80.8825 325.608 80.2425 325.96 79.2825 325.96C77.8105 325.96 76.6585 324.888 76.4825 323.4H83.3625V322.92C83.3625 320.6 81.6025 318.84 79.2825 318.84C76.9625 318.84 75.2025 320.6 75.2025 323ZM76.5145 322.28C76.7225 321.08 77.7465 320.04 79.2825 320.04C80.8185 320.04 81.8265 321.08 82.0025 322.28H76.5145Z" fill="white"/>
    <g style="mix-blend-mode:screen" opacity="0.88">
        <path d="M302.537 276.668L247.295 301.793C218.748 314.777 203.815 346.534 212.024 376.802L229.532 441.362C234.757 460.626 248.67 476.35 267.155 483.881L325.87 507.801C358.642 521.153 396.03 505.374 409.327 472.579L436.84 404.721C442.307 391.239 452.203 380.022 464.899 372.918L501.668 352.344C529.704 336.657 541.765 302.615 529.86 272.776L509.926 222.817C505.676 212.164 498.641 202.85 489.557 195.847L453.005 167.67C419.377 141.746 370.289 155.157 354.513 194.577L335.457 242.19C329.333 257.493 317.54 269.843 302.537 276.668Z" fill="#0F7BF5"/>
    </g>
    <g style="mix-blend-mode:screen" opacity="0.88">
        <path d="M325.438 403.57L456.798 415.993C473.405 417.563 489.969 412.588 502.962 402.126L569.334 348.682C589.02 332.831 597.533 306.879 591.062 282.447L579.108 237.317C567.984 195.318 519.138 176.373 482.604 199.887L419.232 240.673C399.216 253.557 373.703 254.266 353.001 242.515L307.279 216.561C274.598 198.01 233.042 211.476 217.452 245.67L205.92 270.964C192.625 300.125 202.949 334.623 230.077 351.687L297.387 394.028C305.863 399.359 315.47 402.627 325.438 403.57Z" fill="#ED4D34"/>
    </g>
</svg>
